<?xml version="1.0" encoding="UTF-8"?>
<!DOCTYPE svg PUBLIC "-//W3C//DTD SVG 1.1//EN" "http://www.w3.org/Graphics/SVG/1.1/DTD/svg11.dtd">
<svg xmlns="http://www.w3.org/2000/svg" version="1.1" width="270px" height="80px" style="shape-rendering:geometricPrecision; text-rendering:geometricPrecision; image-rendering:optimizeQuality; fill-rule:evenodd; clip-rule:evenodd" xmlns:xlink="http://www.w3.org/1999/xlink">
<g><path style="opacity:0.92" fill="#a0a0a0" d="M 6.5,-0.5 C 92.1667,-0.5 177.833,-0.5 263.5,-0.5C 265.475,1.13696 267.475,2.80363 269.5,4.5C 269.5,28.1667 269.5,51.8333 269.5,75.5C 267.833,76.5 266.5,77.8333 265.5,79.5C 178.167,79.5 90.8333,79.5 3.5,79.5C 2.13632,77.8089 0.802988,76.1423 -0.5,74.5C -0.5,51.5 -0.5,28.5 -0.5,5.5C 1.23438,2.79973 3.56772,0.799728 6.5,-0.5 Z"/></g>
<g><path style="opacity:1" fill="#040403" d="M 7.5,1.5 C 92.1673,1.33334 176.834,1.5 261.5,2C 263.587,2.79217 265.421,3.95884 267,5.5C 267.667,28.1667 267.667,50.8333 267,73.5C 266.167,75.6667 264.667,77.1667 262.5,78C 177.5,78.6667 92.5,78.6667 7.5,78C 5,76.8333 3.16667,75 2,72.5C 1.33333,50.5 1.33333,28.5 2,6.5C 3.72969,4.59809 5.56303,2.93142 7.5,1.5 Z"/></g>
<g><path style="opacity:1" fill="#e5e5e5" d="M 89.5,13.5 C 93.1817,13.3347 96.8484,13.5014 100.5,14C 104.578,15.2985 105.078,17.1319 102,19.5C 89.3264,15.1731 84.6598,19.5064 88,32.5C 91.3379,35.3181 95.1712,36.1515 99.5,35C 101.361,33.9717 102.695,32.4717 103.5,30.5C 100.914,29.52 98.2469,29.1866 95.5,29.5C 95.5,27.8333 95.5,26.1667 95.5,24.5C 99.5,24.5 103.5,24.5 107.5,24.5C 107.477,37.6756 101.144,42.1756 88.5,38C 78.9277,29.4834 79.2611,21.3167 89.5,13.5 Z"/></g>
<g><path style="opacity:1" fill="#33a551" d="M 52.5,29.5 C 48.8333,32.8333 45.1667,36.1667 41.5,39.5C 34.8333,33.1667 28.1667,26.8333 21.5,20.5C 21.1667,19.5 20.5,18.8333 19.5,18.5C 21.438,14.8308 24.438,13.6641 28.5,15C 36.7297,19.6077 44.7297,24.4411 52.5,29.5 Z"/></g>
<g><path style="opacity:1" fill="#7c7c7c" d="M 168.5,39.5 C 168.5,31.1667 168.5,22.8333 168.5,14.5C 167.5,14.5 166.5,14.5 165.5,14.5C 165.5,22.8333 165.5,31.1667 165.5,39.5C 164.507,31.0161 164.174,22.3494 164.5,13.5C 166.167,13.5 167.833,13.5 169.5,13.5C 169.826,22.3494 169.493,31.0161 168.5,39.5 Z"/></g>
<g><path style="opacity:1" fill="#fcfcfc" d="M 168.5,39.5 C 167.5,39.5 166.5,39.5 165.5,39.5C 165.5,31.1667 165.5,22.8333 165.5,14.5C 166.5,14.5 167.5,14.5 168.5,14.5C 168.5,22.8333 168.5,31.1667 168.5,39.5 Z"/></g>
<g><path style="opacity:1" fill="#ebebeb" d="M 194.5,13.5 C 198.182,13.3347 201.848,13.5014 205.5,14C 210.924,16.017 212.758,19.8503 211,25.5C 207.702,29.1646 203.535,30.4979 198.5,29.5C 198.5,32.8333 198.5,36.1667 198.5,39.5C 197.167,39.5 195.833,39.5 194.5,39.5C 194.5,30.8333 194.5,22.1667 194.5,13.5 Z"/></g>
<g><path style="opacity:1" fill="#f7f7f7" d="M 213.5,13.5 C 214.833,13.5 216.167,13.5 217.5,13.5C 217.5,22.1667 217.5,30.8333 217.5,39.5C 216.167,39.5 214.833,39.5 213.5,39.5C 213.5,30.8333 213.5,22.1667 213.5,13.5 Z"/></g>
<g><path style="opacity:1" fill="#0f0f0f" d="M 198.5,17.5 C 205.468,15.9712 208.135,18.4712 206.5,25C 203.854,25.4974 201.187,25.6641 198.5,25.5C 198.5,22.8333 198.5,20.1667 198.5,17.5 Z"/></g>
<g><path style="opacity:1" fill="#3365b5" d="M 19.5,18.5 C 20.5,18.8333 21.1667,19.5 21.5,20.5C 20.5044,33.6562 20.1711,46.9895 20.5,60.5C 20.5,61.1667 20.1667,61.5 19.5,61.5C 19.5,47.1667 19.5,32.8333 19.5,18.5 Z"/></g>
<g><path style="opacity:1" fill="#4285f0" d="M 21.5,20.5 C 28.1667,26.8333 34.8333,33.1667 41.5,39.5C 41.5,39.8333 41.5,40.1667 41.5,40.5C 34.5,47.1667 27.5,53.8333 20.5,60.5C 20.1711,46.9895 20.5044,33.6562 21.5,20.5 Z"/></g>
<g><path style="opacity:1" fill="#ebebeb" d="M 113.5,22.5 C 122.005,21.5138 126.171,25.1804 126,33.5C 123.549,39.0891 119.383,40.9224 113.5,39C 106.899,33.5041 106.899,28.0041 113.5,22.5 Z"/></g>
<g><path style="opacity:1" fill="#ececec" d="M 132.5,22.5 C 139.603,21.2018 143.603,24.0351 144.5,31C 144.333,36.5 141.5,39.3333 136,39.5C 128.875,38.602 126.208,34.602 128,27.5C 129.025,25.313 130.525,23.6464 132.5,22.5 Z"/></g>
<g><path style="opacity:1" fill="#e9e9e9" d="M 150.5,22.5 C 154.653,23.0198 158.653,23.0198 162.5,22.5C 162.666,29.175 162.5,35.8417 162,42.5C 158.987,47.5352 154.82,48.7019 149.5,46C 146.895,44.0692 146.895,42.2358 149.5,40.5C 152.92,44.6331 155.92,44.4664 158.5,40C 158.333,39.5 158.167,39 158,38.5C 148.634,40.1273 144.967,36.1273 147,26.5C 148.376,25.2949 149.542,23.9616 150.5,22.5 Z"/></g>
<g><path style="opacity:1" fill="#eaeaea" d="M 175.5,22.5 C 180.791,21.6434 184.457,23.6434 186.5,28.5C 182.833,30.3333 179.167,32.1667 175.5,34C 176.43,34.9907 177.596,35.4907 179,35.5C 181.69,34.1781 184.19,34.3448 186.5,36C 181.806,40.4331 176.972,40.5998 172,36.5C 169.267,30.7222 170.434,26.0555 175.5,22.5 Z"/></g>
<g><path style="opacity:1" fill="#ececec" d="M 223.5,22.5 C 227.909,21.6185 231.409,22.9518 234,26.5C 234.499,30.8206 234.666,35.1539 234.5,39.5C 232.549,39.7733 231.049,39.1066 230,37.5C 223.142,41.3044 219.809,39.3044 220,31.5C 222.64,29.1267 225.807,27.7934 229.5,27.5C 226.546,26.8526 223.546,26.686 220.5,27C 220.167,26.6667 219.833,26.3333 219.5,26C 220.731,24.5952 222.064,23.4286 223.5,22.5 Z"/></g>
<g><path style="opacity:1" fill="#e6e6e6" d="M 234.5,22.5 C 236.144,22.2865 237.644,22.6198 239,23.5C 240.147,26.6177 241.48,29.6177 243,32.5C 244.474,29.2444 245.64,25.911 246.5,22.5C 248.167,22.5 249.833,22.5 251.5,22.5C 248.449,30.1371 245.282,37.8038 242,45.5C 240.506,46.7472 239.006,46.7472 237.5,45.5C 238.778,43.2777 239.778,40.9443 240.5,38.5C 238.49,33.1505 236.49,27.8172 234.5,22.5 Z"/></g>
<g><path style="opacity:1" fill="#121212" d="M 114.5,26.5 C 121.303,25.7348 123.303,28.5681 120.5,35C 112.807,36.1433 110.807,33.31 114.5,26.5 Z"/></g>
<g><path style="opacity:1" fill="#060606" d="M 133.5,26.5 C 140.486,26.331 142.153,29.1643 138.5,35C 131.416,35.475 129.749,32.6417 133.5,26.5 Z"/></g>
<g><path style="opacity:1" fill="#0b0b0b" d="M 152.5,26.5 C 154.467,26.2606 156.301,26.5939 158,27.5C 160.183,34.6512 157.85,36.9845 151,34.5C 150.109,31.5024 150.609,28.8357 152.5,26.5 Z"/></g>
<g><path style="opacity:1" fill="#181818" d="M 176.5,26.5 C 178.199,26.3398 179.866,26.5065 181.5,27C 179.532,28.5442 177.365,29.7109 175,30.5C 174.7,28.9343 175.2,27.601 176.5,26.5 Z"/></g>
<g><path style="opacity:1" fill="#f5b804" d="M 52.5,29.5 C 56.4234,30.7951 60.0901,32.6284 63.5,35C 66.1667,38.3333 66.1667,41.6667 63.5,45C 59.8057,47.1782 56.1391,49.3448 52.5,51.5C 49.1667,47.5 45.5,43.8333 41.5,40.5C 41.5,40.1667 41.5,39.8333 41.5,39.5C 45.1667,36.1667 48.8333,32.8333 52.5,29.5 Z"/></g>
<g><path style="opacity:1" fill="#1a1a1a" d="M 224.5,31.5 C 226.604,31.2011 228.604,31.5344 230.5,32.5C 228.929,35.0934 226.596,36.0934 223.5,35.5C 223.433,34.0413 223.766,32.7079 224.5,31.5 Z"/></g>
<g><path style="opacity:1" fill="#e54436" d="M 41.5,40.5 C 45.5,43.8333 49.1667,47.5 52.5,51.5C 44.3891,55.7718 36.3891,60.2718 28.5,65C 24.438,66.3359 21.438,65.1692 19.5,61.5C 20.1667,61.5 20.5,61.1667 20.5,60.5C 27.5,53.8333 34.5,47.1667 41.5,40.5 Z"/></g>
<g><path style="opacity:1" fill="#f2f2f2" d="M 106.5,51.5 C 108.924,51.1924 111.257,51.5258 113.5,52.5C 111.955,53.4519 110.288,53.7852 108.5,53.5C 108.5,54.5 108.5,55.5 108.5,56.5C 116.398,56.8864 116.398,57.8864 108.5,59.5C 117.744,61.1268 117.744,62.1268 108.5,62.5C 109.335,68.1832 107.335,69.6832 102.5,67C 103.793,66.51 105.127,66.3433 106.5,66.5C 106.5,65.1667 106.5,63.8333 106.5,62.5C 97.256,62.1268 97.256,61.1268 106.5,59.5C 98.5,58.1667 98.5,56.8333 106.5,55.5C 104.5,54.8333 102.5,54.1667 100.5,53.5C 102.631,52.8313 104.631,52.1646 106.5,51.5 Z"/></g>
<g><path style="opacity:1" fill="#dedede" d="M 175.5,51.5 C 177.176,52.1834 177.843,53.5168 177.5,55.5C 184.167,56.1667 184.167,56.8333 177.5,57.5C 177.351,60.9653 179.018,62.9653 182.5,63.5C 183.583,64.365 183.749,65.365 183,66.5C 181.915,65.7069 180.748,65.0402 179.5,64.5C 177.352,67.3704 174.685,68.037 171.5,66.5C 169.758,62.5657 171.091,60.899 175.5,61.5C 175.5,58.1667 175.5,54.8333 175.5,51.5 Z"/></g>
<g><path style="opacity:1" fill="#d0d0d0" d="M 187.5,53.5 C 190.355,52.1968 193.355,52.1968 196.5,53.5C 193.463,54.7412 190.463,54.7412 187.5,53.5 Z"/></g>
<g><path style="opacity:1" fill="#d9d9d9" d="M 85.5,53.5 C 89.8839,53.1744 94.2172,53.5078 98.5,54.5C 94.3685,54.6404 91.7018,56.6404 90.5,60.5C 91.0398,63.8714 93.0398,65.7048 96.5,66C 93.694,67.8585 91.194,67.3585 89,64.5C 88.231,61.9009 88.3977,59.4009 89.5,57C 87.4233,56.8078 85.4233,56.3078 83.5,55.5C 84.2427,54.8182 84.9094,54.1515 85.5,53.5 Z"/></g>
<g><path style="opacity:1" fill="#e5e5e5" d="M 138.5,52.5 C 140.5,52.5 142.5,52.5 144.5,52.5C 144.186,58.5382 146.519,63.2049 151.5,66.5C 151.192,67.3081 150.692,67.9747 150,68.5C 147.294,66.1294 144.961,63.4628 143,60.5C 141.939,63.5616 140.106,66.0616 137.5,68C 136.275,68.5628 135.275,68.2295 134.5,67C 138.25,64.0284 140.916,60.195 142.5,55.5C 140.668,54.9432 139.335,53.9432 138.5,52.5 Z"/></g>
<g><path style="opacity:1" fill="#d9d9d9" d="M 124.5,54.5 C 127.247,54.1866 129.914,54.52 132.5,55.5C 131.167,55.8333 129.833,56.1667 128.5,56.5C 126.667,56.4146 125.334,55.7479 124.5,54.5 Z"/></g>
<g><path style="opacity:1" fill="#cecece" d="M 156.5,52.5 C 158.048,52.8212 158.715,53.8212 158.5,55.5C 161.068,54.5504 163.568,54.5504 166,55.5C 166.128,58.5144 166.128,61.5144 166,64.5C 167.183,63.269 168.349,63.269 169.5,64.5C 167.977,66.2825 165.977,66.9492 163.5,66.5C 163.223,63.5525 163.556,60.7191 164.5,58C 164,57.5 163.5,57 163,56.5C 161.333,57.5 159.667,58.5 158,59.5C 157.818,62.2263 157.318,64.8929 156.5,67.5C 155.702,65.9223 155.202,64.2556 155,62.5C 154.465,64.2705 153.631,64.6039 152.5,63.5C 153.711,61.5781 155.044,59.7448 156.5,58C 152.068,57.3772 151.735,56.3772 155.5,55C 156.252,54.3292 156.586,53.4959 156.5,52.5 Z"/></g>
<g><path style="opacity:1" fill="#b0b0b0" d="M 94.5,56.5 C 98.8138,56.7721 99.3138,58.1055 96,60.5C 93.988,59.4335 93.488,58.1002 94.5,56.5 Z"/></g>
<g><path style="opacity:1" fill="#dedede" d="M 186.5,56.5 C 189.518,56.3354 192.518,56.502 195.5,57C 198.762,62.8082 196.929,66.3082 190,67.5C 188.743,67.1501 188.409,66.4835 189,65.5C 192.021,64.91 194.188,63.2433 195.5,60.5C 193.046,58.1791 190.213,57.8458 187,59.5C 185.317,58.8235 185.15,57.8235 186.5,56.5 Z"/></g>
<g><path style="opacity:1" fill="#e5e5e5" d="M 123.5,61.5 C 124.922,61.7496 125.922,62.583 126.5,64C 128.577,64.1922 130.577,64.6922 132.5,65.5C 129.894,66.6517 127.227,66.8184 124.5,66C 123.62,64.6439 123.286,63.1439 123.5,61.5 Z"/></g>
<g><path style="opacity:1" fill="#d2d2d2" d="M 119.5,52.5 C 120.649,52.7911 121.316,53.6244 121.5,55C 119.94,57.6407 120.273,59.9741 122.5,62C 121.767,63.7659 121.433,65.5992 121.5,67.5C 120.5,67.5 119.5,67.5 118.5,67.5C 118.221,62.4053 118.555,57.4053 119.5,52.5 Z"/></g>
<g><path style="opacity:1" fill="#000000" d="M 172.5,64.5 C 173.601,63.4017 174.934,63.235 176.5,64C 175.318,65.7683 173.985,65.9349 172.5,64.5 Z"/></g>
</svg>
